sfk_cyclingleg_states
version=1
nRows=11
nColumns=53
inDegrees=yes

# SIMM Motion File Header:
name sfk_cyclingleg_states
datacolumns 53
datarows 11
otherdata 1
range 0.40735174 0.40974919
endheader
time	/jointset/bb/crank_angle/value	/jointset/bb/crank_angle/speed	/jointset/spindle/pedal_angle_r/value	/jointset/spindle/pedal_angle_r/speed	/jointset/ground_pelvis/pelvis_tilt/value	/jointset/ground_pelvis/pelvis_tilt/speed	/jointset/ground_pelvis/pelvis_list/value	/jointset/ground_pelvis/pelvis_list/speed	/jointset/ground_pelvis/pelvis_rotation/value	/jointset/ground_pelvis/pelvis_rotation/speed	/jointset/ground_pelvis/pelvis_tx/value	/jointset/ground_pelvis/pelvis_tx/speed	/jointset/ground_pelvis/pelvis_ty/value	/jointset/ground_pelvis/pelvis_ty/speed	/jointset/ground_pelvis/pelvis_tz/value	/jointset/ground_pelvis/pelvis_tz/speed	/jointset/hip_r/hip_angle_r/value	/jointset/hip_r/hip_angle_r/speed	/jointset/hip_r/hip_adduction_r/value	/jointset/hip_r/hip_adduction_r/speed	/jointset/hip_r/hip_rotation_r/value	/jointset/hip_r/hip_rotation_r/speed	/jointset/knee_r/knee_angle_r/value	/jointset/knee_r/knee_angle_r/speed	/jointset/knee_r/tib_tx_r/value	/jointset/knee_r/tib_tx_r/speed	/jointset/knee_r/tib_ty_r/value	/jointset/knee_r/tib_ty_r/speed	/jointset/tib_pat_r/pat_angle_r/value	/jointset/tib_pat_r/pat_angle_r/speed	/jointset/tib_pat_r/pat_tx_r/value	/jointset/tib_pat_r/pat_tx_r/speed	/jointset/tib_pat_r/pat_ty_r/value	/jointset/tib_pat_r/pat_ty_r/speed	/jointset/ankle_r/ankle_angle_r/value	/jointset/ankle_r/ankle_angle_r/speed	/jointset/subtalar_r/subtalar_angle_r/value	/jointset/subtalar_r/subtalar_angle_r/speed	/jointset/mtp_r/mtp_angle_r/value	/jointset/mtp_r/mtp_angle_r/speed	/forceset/bifemlh_r/activation	/forceset/bifemlh_r/fiber_length	/forceset/bifemsh_r/activation	/forceset/bifemsh_r/fiber_length	/forceset/glut_max2_r/activation	/forceset/glut_max2_r/fiber_length	/forceset/vas_int_r/activation	/forceset/vas_int_r/fiber_length	/forceset/med_gas_r/activation	/forceset/med_gas_r/fiber_length	/forceset/tib_ant_r/activation	/forceset/tib_ant_r/fiber_length
      0.40735174	   -205.72018602	   -480.13863232	    204.06948701	    277.62357400	      0.00000000	      0.00000000	     -0.00000000	     -0.00000000	     -0.00000000	     -0.00000000	      0.00000000	      0.00000000	      0.00000000	      0.00000000	      0.00000000	      0.00000000	     43.88822423	     72.53714677	      4.38125475	     -0.33819537	      0.20805614	    -20.82648766	    -66.80848308	   -267.75701654	      0.00511506	      0.00582773	     -0.47810077	     -0.08610396	     17.49607842	      2.52109527	      0.04074697	     -0.08335306	     -0.02268689	      0.00842222	     21.70421578	     -6.62671848	     -0.00000000	     -0.00000000	     -0.00000000	      0.00000000	     -0.15575442	      0.11789510	     -0.15575442	      0.16263692	     -0.15575442	      0.13322711	     -0.15575442	      0.13394917	     -0.15575442	      0.14349591	     -0.15575442	      0.11682593
      0.40780390	   -205.93728566	   -480.13863232	    204.19506124	    277.81809595	      0.00000000	      0.00000000	     -0.00000000	     -0.00000000	     -0.00000000	     -0.00000000	      0.00000000	      0.00000000	      0.00000000	      0.00000000	      0.00000000	      0.00000000	     43.92109281	     72.84724330	      4.38110017	     -0.34555167	      0.19863685	    -20.83697245	    -66.92961906	   -268.05218722	      0.00511765	      0.00561808	     -0.47813974	     -0.08626491	     17.49720956	      2.48224472	      0.04070924	     -0.08352293	     -0.02268309	      0.00838406	     21.70126092	     -6.44320007	     -0.00000000	     -0.00000000	     -0.00000000	      0.00000000	     -0.15581263	      0.11786502	     -0.15581263	      0.16257218	     -0.15581263	      0.13325046	     -0.15581263	      0.13403198	     -0.15581263	      0.14339114	     -0.15581263	      0.11682899
      0.40784912	   -205.95899563	   -480.13863232	    204.20762352	    277.83771156	      0.00000000	      0.00000000	     -0.00000000	     -0.00000000	     -0.00000000	     -0.00000000	      0.00000000	      0.00000000	      0.00000000	      0.00000000	      0.00000000	      0.00000000	     43.92438737	     72.87818237	      4.38108452	     -0.34628827	      0.19769467	    -20.83801118	    -66.94173998	   -268.08149035	      0.00511790	      0.00559707	     -0.47814364	     -0.08628093	     17.49732171	      2.47837140	      0.04070546	     -0.08353988	     -0.02268271	      0.00838019	     21.70097000	     -6.42482823	     -0.00000000	     -0.00000000	     -0.00000000	      0.00000000	     -0.15581846	      0.11786202	     -0.15581846	      0.16256571	     -0.15581846	      0.13325280	     -0.15581846	      0.13404024	     -0.15581846	      0.14341591	     -0.15581846	      0.11682929
      0.40799143	   -206.02732680	   -480.13863232	    204.24716854	    277.89964421	      0.00000000	      0.00000000	     -0.00000000	     -0.00000000	     -0.00000000	     -0.00000000	      0.00000000	      0.00000000	      0.00000000	      0.00000000	      0.00000000	      0.00000000	     43.93476599	     72.97547849	      4.38103508	     -0.34860785	      0.19472886	    -20.84126907	    -66.97989868	   -268.17346765	      0.00511869	      0.00553089	     -0.47815592	     -0.08633126	     17.49767356	      2.46619437	      0.04069357	     -0.08359318	     -0.02268152	      0.00836793	     21.70005976	     -6.36698019	     -0.00000000	     -0.00000000	     -0.00000000	      0.00000000	     -0.15583678	      0.11785260	     -0.15583678	      0.16254533	     -0.15583678	      0.13326018	     -0.15583678	      0.13406627	     -0.15583678	      0.14341924	     -0.15583678	      0.11683023
      0.40830692	   -206.17880349	   -480.13863232	    204.33486358	    278.03798043	      0.00000000	      0.00000000	     -0.00000000	     -0.00000000	     -0.00000000	     -0.00000000	      0.00000000	      0.00000000	      0.00000000	      0.00000000	      0.00000000	      0.00000000	     43.95782265	     73.19071629	      4.38092428	     -0.35375604	      0.18815261	    -20.84842952	    -67.06453547	   -268.37599738	      0.00512041	      0.00538392	     -0.47818317	     -0.08644236	     17.49844736	      2.43927717	      0.04066718	     -0.08371107	     -0.02267889	      0.00834036	     21.69807132	     -6.23861651	     -0.00000000	     -0.00000000	     -0.00000000	      0.00000000	     -0.15587740	      0.11783176	     -0.15587740	      0.16250016	     -0.15587740	      0.13327656	     -0.15587740	      0.13412402	     -0.15587740	      0.14340501	     -0.15587740	      0.11683231
      0.40874994	   -206.39151357	   -480.13863232	    204.45808289	    278.23465624	      0.00000000	      0.00000000	     -0.00000000	     -0.00000000	     -0.00000000	     -0.00000000	      0.00000000	      0.00000000	      0.00000000	      0.00000000	      0.00000000	      0.00000000	     43.99031423	     73.49192798	      4.38076596	     -0.36099947	      0.17891418	    -20.85834279	    -67.18349332	   -268.65723574	      0.00512275	      0.00517692	     -0.47822150	     -0.08659726	     17.49951966	      2.40166044	      0.04063005	     -0.08387604	     -0.02267520	      0.00830078	     21.69534748	     -6.05807383	     -0.00000000	     -0.00000000	     -0.00000000	      0.00000000	     -0.15593444	      0.11780266	     -0.15593444	      0.16243672	     -0.15593444	      0.13329965	     -0.15593444	      0.13420513	     -0.15593444	      0.14330170	     -0.15593444	      0.11683517
      0.40879424	   -206.41278458	   -480.13863232	    204.47040962	    278.25447860	      0.00000000	      0.00000000	     -0.00000000	     -0.00000000	     -0.00000000	     -0.00000000	      0.00000000	      0.00000000	      0.00000000	      0.00000000	      0.00000000	      0.00000000	     43.99357072	     73.52198319	      4.38074995	     -0.36172471	      0.17799010	    -20.85932511	    -67.19539594	   -268.68515723	      0.00512298	      0.00515617	     -0.47822534	     -0.08661267	     17.49962597	      2.39791058	      0.04062634	     -0.08389250	     -0.02267483	      0.00829676	     21.69507949	     -6.04000125	     -0.00000000	     -0.00000000	     -0.00000000	      0.00000000	     -0.15594014	      0.11779976	     -0.15594014	      0.16243037	     -0.15594014	      0.13330196	     -0.15594014	      0.13421323	     -0.15594014	      0.14332709	     -0.15594014	      0.11683545
      0.40889694	   -206.46209371	   -480.13863232	    204.49898808	    278.30053747	      0.00000000	      0.00000000	     -0.00000000	     -0.00000000	     -0.00000000	     -0.00000000	      0.00000000	      0.00000000	      0.00000000	      0.00000000	      0.00000000	      0.00000000	     44.00112483	     73.59160944	      4.38071272	     -0.36340653	      0.17584778	    -20.86159601	    -67.22299260	   -268.74974204	      0.00512351	      0.00510807	     -0.47823424	     -0.08664836	     17.49987179	      2.38922625	      0.04061772	     -0.08393063	     -0.02267398	      0.00828742	     21.69446135	     -5.99809383	     -0.00000000	     -0.00000000	     -0.00000000	      0.00000000	     -0.15595336	      0.11779304	     -0.15595336	      0.16241567	     -0.15595336	      0.13330733	     -0.15595336	      0.13423201	     -0.15595336	      0.14332932	     -0.15595336	      0.11683610
      0.40922683	   -206.62049040	   -480.13863232	    204.59082335	    278.44951132	      0.00000000	      0.00000000	     -0.00000000	     -0.00000000	     -0.00000000	     -0.00000000	      0.00000000	      0.00000000	      0.00000000	      0.00000000	      0.00000000	      0.00000000	     44.02543938	     73.81483963	      4.38059194	     -0.36881491	      0.16896439	    -20.86883214	    -67.31168661	   -268.95587896	      0.00512517	      0.00495327	     -0.47826284	     -0.08676254	     17.50065540	      2.36140885	      0.04059001	     -0.08405287	     -0.02267125	      0.00825702	     21.69250481	     -5.86335484	     -0.00000000	     -0.00000000	     -0.00000000	      0.00000000	     -0.15599584	      0.11777152	     -0.15599584	      0.16236843	     -0.15599584	      0.13332461	     -0.15599584	      0.13429238	     -0.15599584	      0.14331700	     -0.15599584	      0.11683817
      0.40970171	   -206.84849606	   -480.13863232	    204.72310339	    278.66666778	      0.00000000	      0.00000000	     -0.00000000	     -0.00000000	     -0.00000000	     -0.00000000	      0.00000000	      0.00000000	      0.00000000	      0.00000000	      0.00000000	      0.00000000	     44.06056825	     74.13502456	      4.38041495	     -0.37661542	      0.15905186	    -20.87909293	    -67.43947671	   -269.24905935	      0.00512747	      0.00472975	     -0.47830408	     -0.08692564	     17.50176730	      2.32158268	      0.04055006	     -0.08422818	     -0.02266734	      0.00821226	     21.68976656	     -5.66908974	     -0.00000000	     -0.00000000	     -0.00000000	      0.00000000	     -0.15605698	      0.11774071	     -0.15605698	      0.16230042	     -0.15605698	      0.13334958	     -0.15605698	      0.13437932	     -0.15605698	      0.14321249	     -0.15605698	      0.11684109
      0.40974919	   -206.87129662	   -480.13863232	    204.73633709	    278.68855893	      0.00000000	      0.00000000	     -0.00000000	     -0.00000000	     -0.00000000	     -0.00000000	      0.00000000	      0.00000000	      0.00000000	      0.00000000	      0.00000000	      0.00000000	     44.06408950	     74.16696928	      4.38039704	     -0.37739646	      0.15806034	    -20.88010904	    -67.45226336	   -269.27814827	      0.00512769	      0.00470735	     -0.47830821	     -0.08694186	     17.50187746	      2.31761426	      0.04054606	     -0.08424567	     -0.02266695	      0.00820772	     21.68949782	     -5.64964315	     -0.00000000	     -0.00000000	     -0.00000000	      0.00000000	     -0.15606309	      0.11773764	     -0.15606309	      0.16229362	     -0.15606309	      0.13335208	     -0.15606309	      0.13438799	     -0.15606309	      0.14323602	     -0.15606309	      0.11684138
